<svg xmlns="http://www.w3.org/2000/svg" width="512" height="512" viewBox="0 0 512 512" role="img" aria-labelledby="title desc">
  <title id="title">Autoevaluacion CNA logo</title>
  <desc id="desc">Shield and checkmark logo for the Autoevaluacion CNA desktop application.</desc>
  <defs>
    <linearGradient id="field" x1="96" y1="72" x2="416" y2="440" gradientUnits="userSpaceOnUse">
      <stop offset="0" stop-color="#0f766e"/>
      <stop offset="0.55" stop-color="#155e75"/>
      <stop offset="1" stop-color="#1e3a8a"/>
    </linearGradient>
    <linearGradient id="sheet" x1="170" y1="132" x2="342" y2="382" gradientUnits="userSpaceOnUse">
      <stop offset="0" stop-color="#ffffff"/>
      <stop offset="1" stop-color="#e6f4f1"/>
    </linearGradient>
    <filter id="shadow" x="-20%" y="-20%" width="140%" height="145%" color-interpolation-filters="sRGB">
      <feDropShadow dx="0" dy="18" stdDeviation="18" flood-color="#0f172a" flood-opacity="0.22"/>
    </filter>
  </defs>
  <rect width="512" height="512" rx="112" fill="#f8fafc"/>
  <path d="M256 56 408 113v110c0 103-61 185-152 233-91-48-152-130-152-233V113L256 56Z" fill="url(#field)" filter="url(#shadow)"/>
  <path d="M256 84 379 130v91c0 85-48 154-123 196-75-42-123-111-123-196v-91L256 84Z" fill="none" stroke="#99f6e4" stroke-opacity="0.5" stroke-width="8"/>
  <path d="M174 139h129l51 51v178a20 20 0 0 1-20 20H174a20 20 0 0 1-20-20V159a20 20 0 0 1 20-20Z" fill="url(#sheet)"/>
  <path d="M303 139v45a6 6 0 0 0 6 6h45" fill="#bfdbfe"/>
  <path d="M194 215h120M194 256h120M194 297h76" stroke="#155e75" stroke-width="18" stroke-linecap="round"/>
  <circle cx="320" cy="326" r="62" fill="#14b8a6"/>
  <path d="m291 326 21 21 42-49" fill="none" stroke="#ffffff" stroke-width="18" stroke-linecap="round" stroke-linejoin="round"/>
  <path d="M154 425h204" stroke="#0f172a" stroke-opacity="0.16" stroke-width="12" stroke-linecap="round"/>
</svg>
